<?xml version="1.0" encoding="utf-8"?>
<!-- Generator: Adobe Illustrator 24.2.0, SVG Export Plug-In . SVG Version: 6.00 Build 0)  -->
<svg version="1.1" id="Layer_1" xmlns="http://www.w3.org/2000/svg" xmlns:xlink="http://www.w3.org/1999/xlink" x="0px" y="0px"
	 viewBox="0 0 579.5 89" style="enable-background:new 0 0 579.5 89;" xml:space="preserve">
<style type="text/css">
	.st0{fill:#FFFFFF;}
	.st1{fill-rule:evenodd;clip-rule:evenodd;fill:#FFFFFF;}
</style>
<path class="st0" d="M103.8,57.1c0,14.2,8.7,23.8,25,23.8c15.5,0,25.1-9.3,25.1-23.8V18.6h-9.1v37.8c0,10.4-6.3,16.1-16,16.1
	c-9.8,0-16-5.9-16-16.1V18.6h-9.1L103.8,57.1L103.8,57.1z"/>
<path class="st0" d="M160.1,80.1h8.7V56.8c0-8.5,4.8-14.3,12.2-14.3c6.3,0,9.8,3.6,9.8,11.4v26.2h8.7V53c0-11-5.5-18.1-15.3-18.1
	c-6.6,0-12.1,3.4-14.8,9.1h-0.6l-1.2-8.3H160v44.4C160,80.1,160.1,80.1,160.1,80.1z"/>
<path class="st0" d="M206.6,28.5h8.6V18h-8.6V28.5z M206.6,80.1h8.6V35.7h-8.6V80.1z"/>
<path class="st0" d="M220.1,35.7l15.8,44.4h10.5L262,35.7h-9.5L245.4,58l-4,13.6h-0.5L236.7,58l-7.1-22.3H220.1z"/>
<path class="st0" d="M262.1,57.8c0,14.1,7.8,23.1,21,23.1c10.4,0,18.3-5.7,20.1-14.3h-8.6c-1.3,4.4-5.5,7.4-11.4,7.4
	c-7.3,0-12.2-4.7-12.2-11.7v-2.4h31.7c0.2-1.4,0.3-3.4,0.3-4.8c0-12.6-8-20.2-20-20.2C270.3,34.9,262.1,43.3,262.1,57.8z M271,53.6
	v-1c0-6.4,4.9-10.8,11.9-10.8c6.8,0,11.3,4.2,11.3,10.4v1.4H271z"/>
<path class="st0" d="M317.3,35.7c-6.7,0-7.6,4.1-7.6,7.6v36.8h8.7V43h14.3v-7.3H317.3z"/>
<path class="st0" d="M343.5,66.5h-8.7c0,8.5,6.9,14.4,18.5,14.4c10.8,0,18.1-5.1,18.1-13.8c0-6-3.3-10.7-11.9-12.2l-8.4-1.5
	c-2.3-0.3-6.7-1.1-6.7-5.7c0-3.8,2.9-6.2,8.4-6.2c5.1,0,8.6,2.2,8.7,7.1h8.6c-0.1-8.1-6.5-13.7-17.3-13.7c-10.3,0-17.1,5-17.1,13.6
	c0,5.8,3.4,10.4,12.1,12l9,1.7c1.8,0.3,5.6,1.2,5.6,5.6c0,4.1-3.4,6.7-9.1,6.7C347.4,74.3,343.5,71.4,343.5,66.5z"/>
<path class="st0" d="M375.7,57.8c0,14.1,7.8,23.1,21,23.1c10.4,0,18.3-5.7,20.1-14.3h-8.6c-1.3,4.4-5.5,7.4-11.4,7.4
	c-7.3,0-12.2-4.7-12.2-11.7v-2.4h31.7c0.2-1.4,0.3-3.4,0.3-4.8c0-12.6-8-20.2-20-20.2C383.8,34.9,375.7,43.3,375.7,57.8z
	 M384.6,53.6v-1c0-6.4,4.9-10.8,11.9-10.8c6.8,0,11.3,4.2,11.3,10.4v1.4H384.6z"/>
<path class="st0" d="M375.7,57.8c0,14.1,7.8,23.1,21,23.1c10.4,0,18.3-5.7,20.1-14.3h-8.6c-1.3,4.4-5.5,7.4-11.4,7.4
	c-7.3,0-12.2-4.7-12.2-11.7v-2.4h31.7c0.2-1.4,0.3-3.4,0.3-4.8c0-12.6-8-20.2-20-20.2C383.8,34.9,375.7,43.3,375.7,57.8z
	 M384.6,53.6v-1c0-6.4,4.9-10.8,11.9-10.8c6.8,0,11.3,4.2,11.3,10.4v1.4H384.6z"/>
<path class="st1" d="M46.5,0C20.8,0,0,20.4,0,45.6c0,20.2,13.3,37.2,31.8,43.3c2.3,0.4,3.2-1,3.2-2.2c0-1.1-0.1-4.7-0.1-8.5
	c-11.7,2.1-14.7-2.8-15.6-5.4c-0.5-1.3-2.8-5.4-4.8-6.4c-1.6-0.9-4-3-0.1-3c3.7-0.1,6.3,3.3,7.1,4.7c4.2,6.9,10.9,5,13.5,3.8
	c0.4-3,1.6-5,3-6.1c-10.2-1.2-21-5.1-21-22.6c0-5,1.8-9.1,4.8-12.3c-0.5-1.1-2.1-5.8,0.5-12.1c0,0,3.9-1.2,12.8,4.7
	c3.7-1,7.7-1.5,11.6-1.5s7.9,0.5,11.6,1.5c8.9-5.9,12.8-4.7,12.8-4.7c2.6,6.3,0.9,11,0.5,12.1c3,3.2,4.8,7.2,4.8,12.3
	c0,17.5-10.9,21.4-21.2,22.5c1.7,1.4,3.1,4.2,3.1,8.4c0,6.1-0.1,11-0.1,12.5c0,1.2,0.9,2.6,3.2,2.2C79.7,82.9,93,65.8,93,45.6
	C93,20.4,72.2,0,46.5,0z"/>
<g>
	<path class="st0" d="M459.8,75.3v4.8h-37.9V76L446,50.5c5.1-5.4,6.7-8.6,6.7-11.9v-3.7c0-6.6-6.4-10.5-13.2-10.5
		c-8.1,0-13.4,5.2-13.4,12.9v1.3h-5.2c-0.2-11.8,7.5-19.2,18.9-19.2c11,0,18.7,6.8,18.7,17.1c0,8.8-5.3,13.8-8.7,17.4l-20.2,21.4
		c2.9-0.1,6.2-0.2,9.1-0.2h21.1V75.3z"/>
	<path class="st0" d="M487.6,19.5c13.5,0,19.8,9.7,19.8,30.7s-6.3,30.7-19.8,30.7s-19.9-9.7-19.9-30.7S474.1,19.5,487.6,19.5z
		 M487.5,76.1c8,0,13.9-5.5,13.9-17V41.3c0-11.5-6-17-13.9-17c-8,0-13.9,5.5-13.9,17v17.8C473.6,70.6,479.5,76.1,487.5,76.1z"/>
	<path class="st0" d="M552.8,75.3v4.8h-37.9V76L539,50.5c5.1-5.4,6.7-8.6,6.7-11.9v-3.7c0-6.6-6.4-10.5-13.2-10.5
		c-8.1,0-13.4,5.2-13.4,12.9v1.3h-5.2c-0.2-11.8,7.5-19.2,18.9-19.2c11,0,18.7,6.8,18.7,17.1c0,8.8-5.3,13.8-8.7,17.4l-20.2,21.4
		c2.9-0.1,6.2-0.2,9.1-0.2h21.1V75.3z"/>
	<path class="st0" d="M559.5,30.4h2.2c7.8,0,12.9-4.1,12.9-10.1h4.8v59.8h-5.1V34.5h-14.9L559.5,30.4L559.5,30.4z"/>
</g>
</svg>
